{
  "accessors": [
    {
      "bufferView": 2,
      "componentType": 5126,
      "count": 65532,
      "max": [
        2.3596091270446777,
        7.735022068023682,
        0.9775694608688354
      ],
      "min": [
        -2.1579630374908447,
        0.01123396959155798,
        -0.8801571130752563
      ],
      "type": "VEC3"
    },
    {
      "bufferView": 2,
      "byteOffset": 786384,
      "componentType": 5126,
      "count": 65532,
      "max": [
        0.9999993443489075,
        0.9999896287918091,
        0.9999882578849792
      ],
      "min": [
        -0.9999995231628418,
        -0.9999983310699463,
        -0.9999300837516785
      ],
      "type": "VEC3"
    },
    {
      "bufferView": 1,
      "componentType": 5126,
      "count": 65532,
      "max": [
        0.9953590035438538,
        0.9944159984588623
      ],
      "min": [
        0.003109999932348728,
        0.00568997859954834
      ],
      "type": "VEC2"
    },
    {
      "bufferView": 1,
      "byteOffset": 524256,
      "componentType": 5126,
      "count": 65532,
      "max": [
        0.9953590035438538,
        0.9944159984588623
      ],
      "min": [
        0.003109999932348728,
        0.00568997859954834
      ],
      "type": "VEC2"
    },
    {
      "bufferView": 0,
      "componentType": 5125,
      "count": 368730,
      "type": "SCALAR"
    },
    {
      "bufferView": 2,
      "byteOffset": 1572768,
      "componentType": 5126,
      "count": 61484,
      "max": [
        1.9355800151824951,
        7.886734485626221,
        0.9800015091896057
      ],
      "min": [
        -2.332602024078369,
        0.00801180675625801,
        -0.7929812669754028
      ],
      "type": "VEC3"
    },
    {
      "bufferView": 2,
      "byteOffset": 2310576,
      "componentType": 5126,
      "count": 61484,
      "max": [
        0.9999995827674866,
        0.9999989867210388,
        0.9999905228614807
      ],
      "min": [
        -0.9999969005584717,
        -0.9999986886978149,
        -0.9999907612800598
      ],
      "type": "VEC3"
    },
    {
      "bufferView": 1,
      "byteOffset": 1048512,
      "componentType": 5126,
      "count": 61484,
      "max": [
        0.9953590035438538,
        0.9948679804801941
      ],
      "min": [
        0.003109999932348728,
        0.00568997859954834
      ],
      "type": "VEC2"
    },
    {
      "bufferView": 1,
      "byteOffset": 1540384,
      "componentType": 5126,
      "count": 61484,
      "max": [
        0.9953590035438538,
        0.9948679804801941
      ],
      "min": [
        0.003109999932348728,
        0.00568997859954834
      ],
      "type": "VEC2"
    },
    {
      "bufferView": 0,
      "byteOffset": 1474920,
      "componentType": 5125,
      "count": 343782,
      "type": "SCALAR"
    },
    {
      "bufferView": 2,
      "byteOffset": 3048384,
      "componentType": 5126,
      "count": 6291,
      "max": [
        0.4347665309906006,
        8.582039833068848,
        0.8147408962249756
      ],
      "min": [
        -0.39489254355430603,
        7.669112682342529,
        -0.20690856873989105
      ],
      "type": "VEC3"
    },
    {
      "bufferView": 2,
      "byteOffset": 3123876,
      "componentType": 5126,
      "count": 6291,
      "max": [
        0.9998725056648254,
        0.9999786019325256,
        0.99909907579422
      ],
      "min": [
        -0.9999987483024597,
        -0.9999325275421143,
        -0.9995983839035034
      ],
      "type": "VEC3"
    },
    {
      "bufferView": 1,
      "byteOffset": 2032256,
      "componentType": 5126,
      "count": 6291,
      "max": [
        0.4963429868221283,
        0.9982460141181946
      ],
      "min": [
        0.0017770000267773867,
        0.7073400020599365
      ],
      "type": "VEC2"
    },
    {
      "bufferView": 1,
      "byteOffset": 2082584,
      "componentType": 5126,
      "count": 6291,
      "max": [
        0.4963429868221283,
        0.9982460141181946
      ],
      "min": [
        0.0017770000267773867,
        0.7073400020599365
      ],
      "type": "VEC2"
    },
    {
      "bufferView": 1,
      "byteOffset": 2132912,
      "componentType": 5126,
      "count": 6291,
      "max": [
        0.4963429868221283,
        0.9982460141181946
      ],
      "min": [
        0.0017770000267773867,
        0.7073400020599365
      ],
      "type": "VEC2"
    },
    {
      "bufferView": 0,
      "byteOffset": 2850048,
      "componentType": 5125,
      "count": 35352,
      "type": "SCALAR"
    },
    {
      "bufferView": 2,
      "byteOffset": 3199368,
      "componentType": 5126,
      "count": 65532,
      "max": [
        2.0936639308929443,
        8.22092342376709,
        2.1911590099334717
      ],
      "min": [
        -2.8475260734558105,
        0.010347847826778889,
        -1.5466276407241821
      ],
      "type": "VEC3"
    },
    {
      "bufferView": 2,
      "byteOffset": 3985752,
      "componentType": 5126,
      "count": 65532,
      "max": [
        0.9999971389770508,
        0.9999837279319763,
        0.9999875426292419
      ],
      "min": [
        -0.9999850392341614,
        -0.9999974370002747,
        -0.9999978542327881
      ],
      "type": "VEC3"
    },
    {
      "bufferView": 1,
      "byteOffset": 2183240,
      "componentType": 5126,
      "count": 65532,
      "max": [
        0.9996209740638733,
        0.9989809989929199
      ],
      "min": [
        0.0010179999517276883,
        0.0013010501861572266
      ],
      "type": "VEC2"
    },
    {
      "bufferView": 1,
      "byteOffset": 2707496,
      "componentType": 5126,
      "count": 65532,
      "max": [
        0.9996209740638733,
        0.9989809989929199
      ],
      "min": [
        0.0010179999517276883,
        0.0013010501861572266
      ],
      "type": "VEC2"
    },
    {
      "bufferView": 1,
      "byteOffset": 3231752,
      "componentType": 5126,
      "count": 65532,
      "max": [
        0.9996209740638733,
        0.9989809989929199
      ],
      "min": [
        0.0010179999517276883,
        0.0013010501861572266
      ],
      "type": "VEC2"
    },
    {
      "bufferView": 0,
      "byteOffset": 2991456,
      "componentType": 5125,
      "count": 364755,
      "type": "SCALAR"
    },
    {
      "bufferView": 2,
      "byteOffset": 4772136,
      "componentType": 5126,
      "count": 65532,
      "max": [
        2.089125871658325,
        7.817877769470215,
        2.237600803375244
      ],
      "min": [
        -2.0923500061035156,
        0.008268116973340511,
        -1.47938871383667
      ],
      "type": "VEC3"
    },
    {
      "bufferView": 2,
      "byteOffset": 5558520,
      "componentType": 5126,
      "count": 65532,
      "max": [
        0.9999957084655762,
        0.9999937415122986,
        0.9999883770942688
      ],
      "min": [
        -0.9999980330467224,
        -0.9999992251396179,
        -0.9999943375587463
      ],
      "type": "VEC3"
    },
    {
      "bufferView": 1,
      "byteOffset": 3756008,
      "componentType": 5126,
      "count": 65532,
      "max": [
        0.9996209740638733,
        0.9987429976463318
      ],
      "min": [
        0.0006520000169984996,
        0.0020600557327270508
      ],
      "type": "VEC2"
    },
    {
      "bufferView": 1,
      "byteOffset": 4280264,
      "componentType": 5126,
      "count": 65532,
      "max": [
        0.9996209740638733,
        0.9987429976463318
      ],
      "min": [
        0.0006520000169984996,
        0.0020600557327270508
      ],
      "type": "VEC2"
    },
    {
      "bufferView": 1,
      "byteOffset": 4804520,
      "componentType": 5126,
      "count": 65532,
      "max": [
        0.9996209740638733,
        0.9987429976463318
      ],
      "min": [
        0.0006520000169984996,
        0.0020600557327270508
      ],
      "type": "VEC2"
    },
    {
      "bufferView": 0,
      "byteOffset": 4450476,
      "componentType": 5125,
      "count": 365337,
      "type": "SCALAR"
    },
    {
      "bufferView": 2,
      "byteOffset": 6344904,
      "componentType": 5126,
      "count": 36999,
      "max": [
        2.9057700634002686,
        8.215845108032227,
        2.1009910106658936
      ],
      "min": [
        0.09624283760786057,
        0.02497619390487671,
        -0.9081795811653137
      ],
      "type": "VEC3"
    },
    {
      "bufferView": 2,
      "byteOffset": 6788892,
      "componentType": 5126,
      "count": 36999,
      "max": [
        0.9999954700469971,
        0.9999845623970032,
        0.999998927116394
      ],
      "min": [
        -0.9999972581863403,
        -0.9999872446060181,
        -0.9999608397483826
      ],
      "type": "VEC3"
    },
    {
      "bufferView": 1,
      "byteOffset": 5328776,
      "componentType": 5126,
      "count": 36999,
      "max": [
        0.9989200234413147,
        0.9989809989929199
      ],
      "min": [
        0.33278098702430725,
        0.0013010501861572266
      ],
      "type": "VEC2"
    },
    {
      "bufferView": 1,
      "byteOffset": 5624768,
      "componentType": 5126,
      "count": 36999,
      "max": [
        0.9989200234413147,
        0.9989809989929199
      ],
      "min": [
        0.33278098702430725,
        0.0013010501861572266
      ],
      "type": "VEC2"
    },
    {
      "bufferView": 1,
      "byteOffset": 5920760,
      "componentType": 5126,
      "count": 36999,
      "max": [
        0.9989200234413147,
        0.9989809989929199
      ],
      "min": [
        0.33278098702430725,
        0.0013010501861572266
      ],
      "type": "VEC2"
    },
    {
      "bufferView": 0,
      "byteOffset": 5911824,
      "componentType": 5125,
      "count": 208500,
      "type": "SCALAR"
    }
  ],
  "asset": {
    "extras": {
      "author": "TransformerRig (https://sketchfab.com/gamestudio657)",
      "license": "CC-BY-4.0 (http://creativecommons.org/licenses/by/4.0/)",
      "source": "https://sketchfab.com/3d-models/hot-rod-c45edd25e5f24b86a5d54d5dc2918755",
      "title": "Hot Rod"
    },
    "generator": "Sketchfab-15.37.0",
    "version": "2.0"
  },
  "bufferViews": [
    {
      "buffer": 0,
      "byteLength": 6745824,
      "name": "floatBufferViews",
      "target": 34963
    },
    {
      "buffer": 0,
      "byteLength": 6216752,
      "byteOffset": 6745824,
      "byteStride": 8,
      "name": "floatBufferViews",
      "target": 34962
    },
    {
      "buffer": 0,
      "byteLength": 7232880,
      "byteOffset": 12962576,
      "byteStride": 12,
      "name": "floatBufferViews",
      "target": 34962
    }
  ],
  "buffers": [
    {
      "byteLength": 20195456,
      "uri": "scene.bin"
    }
  ],
  "extensionsUsed": [
    "KHR_materials_emissive_strength"
  ],
  "images": [
    {
      "uri": "textures/hotrod_b_baseColor.png"
    },
    {
      "uri": "textures/hotrod_a_baseColor.png"
    },
    {
      "uri": "textures/hotrod_a_metallicRoughness.png"
    },
    {
      "uri": "textures/hotrod_a_emissive.png"
    }
  ],
  "materials": [
    {
      "doubleSided": true,
      "name": "hotrod_b",
      "pbrMetallicRoughness": {
        "baseColorTexture": {
          "index": 0
        },
        "roughnessFactor": 0.309091
      }
    },
    {
      "doubleSided": true,
      "emissiveFactor": [
        1.0,
        1.0,
        1.0
      ],
      "emissiveTexture": {
        "index": 3,
        "texCoord": 1
      },
      "extensions": {
        "KHR_materials_emissive_strength": {
          "emissiveStrength": 10.0
        }
      },
      "name": "hotrod_a",
      "occlusionTexture": {
        "index": 2
      },
      "pbrMetallicRoughness": {
        "baseColorTexture": {
          "index": 1
        },
        "metallicRoughnessTexture": {
          "index": 2
        },
        "roughnessFactor": 0.21790542599748874
      }
    }
  ],
  "meshes": [
    {
      "name": "Object_0",
      "primitives": [
        {
          "attributes": {
            "NORMAL": 1,
            "POSITION": 0,
            "TEXCOORD_0": 2,
            "TEXCOORD_1": 3
          },
          "indices": 4,
          "material": 0,
          "mode": 4
        }
      ]
    },
    {
      "name": "Object_1",
      "primitives": [
        {
          "attributes": {
            "NORMAL": 6,
            "POSITION": 5,
            "TEXCOORD_0": 7,
            "TEXCOORD_1": 8
          },
          "indices": 9,
          "material": 0,
          "mode": 4
        }
      ]
    },
    {
      "name": "mesh_1",
      "primitives": [
        {
          "attributes": {
            "NORMAL": 11,
            "POSITION": 10,
            "TEXCOORD_0": 12,
            "TEXCOORD_1": 13,
            "TEXCOORD_2": 14
          },
          "indices": 15,
          "material": 1,
          "mode": 4
        }
      ]
    },
    {
      "name": "Object_3",
      "primitives": [
        {
          "attributes": {
            "NORMAL": 17,
            "POSITION": 16,
            "TEXCOORD_0": 18,
            "TEXCOORD_1": 19,
            "TEXCOORD_2": 20
          },
          "indices": 21,
          "material": 1,
          "mode": 4
        }
      ]
    },
    {
      "name": "Object_4",
      "primitives": [
        {
          "attributes": {
            "NORMAL": 23,
            "POSITION": 22,
            "TEXCOORD_0": 24,
            "TEXCOORD_1": 25,
            "TEXCOORD_2": 26
          },
          "indices": 27,
          "material": 1,
          "mode": 4
        }
      ]
    },
    {
      "name": "Object_5",
      "primitives": [
        {
          "attributes": {
            "NORMAL": 29,
            "POSITION": 28,
            "TEXCOORD_0": 30,
            "TEXCOORD_1": 31,
            "TEXCOORD_2": 32
          },
          "indices": 33,
          "material": 1,
          "mode": 4
        }
      ]
    }
  ],
  "nodes": [
    {
      "children": [
        1
      ],
      "matrix": [
        1.0,
        0.0,
        0.0,
        0.0,
        0.0,
        2.220446049250313e-16,
        -1.0,
        0.0,
        0.0,
        1.0,
        2.220446049250313e-16,
        0.0,
        0.0,
        0.0,
        0.0,
        1.0
      ],
      "name": "Sketchfab_model"
    },
    {
      "children": [
        2
      ],
      "name": "root"
    },
    {
      "children": [
        3,
        6,
        8
      ],
      "matrix": [
        1.0,
        0.0,
        0.0,
        0.0,
        0.0,
        2.220446049250313e-16,
        1.0,
        0.0,
        0.0,
        -1.0,
        2.220446049250313e-16,
        0.0,
        0.0,
        0.0,
        0.0,
        1.0
      ],
      "name": "GLTF_SceneRootNode"
    },
    {
      "children": [
        4,
        5
      ],
      "name": "parts/dmx/TLK_HotRod.dmx_0"
    },
    {
      "mesh": 0,
      "name": "Object_4"
    },
    {
      "mesh": 1,
      "name": "Object_5"
    },
    {
      "children": [
        7
      ],
      "name": "parts/dmx/TLK_HotRod.dmx.001_1"
    },
    {
      "mesh": 2,
      "name": "mesh_1"
    },
    {
      "children": [
        9,
        10,
        11
      ],
      "name": "parts/dmx/TLK_HotRod.dmx.002_2"
    },
    {
      "mesh": 3,
      "name": "Object_9"
    },
    {
      "mesh": 4,
      "name": "Object_10"
    },
    {
      "mesh": 5,
      "name": "Object_11"
    }
  ],
  "samplers": [
    {
      "magFilter": 9729,
      "minFilter": 9987,
      "wrapS": 10497,
      "wrapT": 10497
    }
  ],
  "scene": 0,
  "scenes": [
    {
      "name": "Sketchfab_Scene",
      "nodes": [
        0
      ]
    }
  ],
  "textures": [
    {
      "sampler": 0,
      "source": 0
    },
    {
      "sampler": 0,
      "source": 1
    },
    {
      "sampler": 0,
      "source": 2
    },
    {
      "sampler": 0,
      "source": 3
    }
  ]
}
